<svg height="3518" width="720" xmlns="http://www.w3.org/2000/svg">
<rect height="3518" fill="#555" width="720"></rect>
<text fill="#7f7" font-family="Courier New" font-size="12" xml:space="preserve">
<tspan x="10" y="26">└─┬ a11y@0.5.0 </tspan>
<tspan x="10" y="42">  ├── accessibility-developer-tools@2.12.0 </tspan>
<tspan x="10" y="58">  ├─┬ chalk@1.1.3 </tspan>
<tspan x="10" y="74">  │ ├── ansi-styles@2.2.1 </tspan>
<tspan x="10" y="90">  │ ├── escape-string-regexp@1.0.5 </tspan>
<tspan x="10" y="106">  │ ├─┬ has-ansi@2.0.0 </tspan>
<tspan x="10" y="122">  │ │ └── ansi-regex@2.1.1 </tspan>
<tspan x="10" y="138">  │ ├── strip-ansi@3.0.1 </tspan>
<tspan x="10" y="154">  │ └── supports-color@2.0.0 </tspan>
<tspan x="10" y="170">  ├─┬ each-async@1.1.1 </tspan>
<tspan x="10" y="186">  │ ├── onetime@1.1.0 </tspan>
<tspan x="10" y="202">  │ └── set-immediate-shim@1.0.1 </tspan>
<tspan x="10" y="218">  ├─┬ globby@6.1.0 </tspan>
<tspan x="10" y="234">  │ ├─┬ array-union@1.0.2 </tspan>
<tspan x="10" y="250">  │ │ └── array-uniq@1.0.3 </tspan>
<tspan x="10" y="266">  │ ├─┬ glob@7.1.1 </tspan>
<tspan x="10" y="282">  │ │ ├── fs.realpath@1.0.0 </tspan>
<tspan x="10" y="298">  │ │ ├─┬ inflight@1.0.6 </tspan>
<tspan x="10" y="314">  │ │ │ └── wrappy@1.0.2 </tspan>
<tspan x="10" y="330">  │ │ ├── inherits@2.0.3 </tspan>
<tspan x="10" y="346">  │ │ ├─┬ minimatch@3.0.3 </tspan>
<tspan x="10" y="362">  │ │ │ └─┬ brace-expansion@1.1.6 </tspan>
<tspan x="10" y="378">  │ │ │   ├── balanced-match@0.4.2 </tspan>
<tspan x="10" y="394">  │ │ │   └── concat-map@0.0.1 </tspan>
<tspan x="10" y="410">  │ │ ├── once@1.4.0 </tspan>
<tspan x="10" y="426">  │ │ └── path-is-absolute@1.0.1 </tspan>
<tspan x="10" y="442">  │ ├── object-assign@4.1.1 </tspan>
<tspan x="10" y="458">  │ ├── pify@2.3.0 </tspan>
<tspan x="10" y="474">  │ └─┬ pinkie-promise@2.0.1 </tspan>
<tspan x="10" y="490">  │   └── pinkie@2.0.4 </tspan>
<tspan x="10" y="506">  ├─┬ humanize-url@1.0.1 </tspan>
<tspan x="10" y="522">  │ ├─┬ normalize-url@1.9.1 </tspan>
<tspan x="10" y="538">  │ │ ├─┬ query-string@4.3.2 </tspan>
<tspan x="10" y="554">  │ │ │ └── strict-uri-encode@1.1.0 </tspan>
<tspan x="10" y="570">  │ │ └─┬ sort-keys@1.1.2 </tspan>
<tspan x="10" y="586">  │ │   └── is-plain-obj@1.1.0 </tspan>
<tspan x="10" y="602">  │ └── strip-url-auth@1.0.1 </tspan>
<tspan x="10" y="618">  ├── indent-string@3.1.0 </tspan>
<tspan x="10" y="634">  ├── log-symbols@1.0.2 </tspan>
<tspan x="10" y="650">  ├─┬ meow@3.7.0 </tspan>
<tspan x="10" y="666">  │ ├─┬ camelcase-keys@2.1.0 </tspan>
<tspan x="10" y="682">  │ │ └── camelcase@2.1.1 </tspan>
<tspan x="10" y="698">  │ ├── decamelize@1.2.0 </tspan>
<tspan x="10" y="714">  │ ├─┬ loud-rejection@1.6.0 </tspan>
<tspan x="10" y="730">  │ │ ├─┬ currently-unhandled@0.4.1 </tspan>
<tspan x="10" y="746">  │ │ │ └── array-find-index@1.0.2 </tspan>
<tspan x="10" y="762">  │ │ └── signal-exit@3.0.2 </tspan>
<tspan x="10" y="778">  │ ├── map-obj@1.0.1 </tspan>
<tspan x="10" y="794">  │ ├── minimist@1.2.0 </tspan>
<tspan x="10" y="810">  │ ├─┬ normalize-package-data@2.3.6 </tspan>
<tspan x="10" y="826">  │ │ ├── hosted-git-info@2.4.1 </tspan>
<tspan x="10" y="842">  │ │ ├─┬ is-builtin-module@1.0.0 </tspan>
<tspan x="10" y="858">  │ │ │ └── builtin-modules@1.1.1 </tspan>
<tspan x="10" y="874">  │ │ ├── semver@5.3.0 </tspan>
<tspan x="10" y="890">  │ │ └─┬ validate-npm-package-license@3.0.1 </tspan>
<tspan x="10" y="906">  │ │   ├─┬ spdx-correct@1.0.2 </tspan>
<tspan x="10" y="922">  │ │   │ └── spdx-license-ids@1.2.2 </tspan>
<tspan x="10" y="938">  │ │   └── spdx-expression-parse@1.0.4 </tspan>
<tspan x="10" y="954">  │ ├─┬ read-pkg-up@1.0.1 </tspan>
<tspan x="10" y="970">  │ │ ├─┬ find-up@1.1.2 </tspan>
<tspan x="10" y="986">  │ │ │ └── path-exists@2.1.0 </tspan>
<tspan x="10" y="1002">  │ │ └─┬ read-pkg@1.1.0 </tspan>
<tspan x="10" y="1018">  │ │   ├─┬ load-json-file@1.1.0 </tspan>
<tspan x="10" y="1034">  │ │   │ └─┬ strip-bom@2.0.0 </tspan>
<tspan x="10" y="1050">  │ │   │   └── is-utf8@0.2.1 </tspan>
<tspan x="10" y="1066">  │ │   └── path-type@1.1.0 </tspan>
<tspan x="10" y="1082">  │ ├─┬ redent@1.0.0 </tspan>
<tspan x="10" y="1098">  │ │ ├─┬ indent-string@2.1.0 </tspan>
<tspan x="10" y="1114">  │ │ │ └─┬ repeating@2.0.1 </tspan>
<tspan x="10" y="1130">  │ │ │   └─┬ is-finite@1.0.2 </tspan>
<tspan x="10" y="1146">  │ │ │     └── number-is-nan@1.0.1 </tspan>
<tspan x="10" y="1162">  │ │ └─┬ strip-indent@1.0.1 </tspan>
<tspan x="10" y="1178">  │ │   └── get-stdin@4.0.1 </tspan>
<tspan x="10" y="1194">  │ └── trim-newlines@1.0.0 </tspan>
<tspan x="10" y="1210">  ├─┬ parse-json@2.2.0 </tspan>
<tspan x="10" y="1226">  │ └─┬ error-ex@1.3.1 </tspan>
<tspan x="10" y="1242">  │   └── is-arrayish@0.2.1 </tspan>
<tspan x="10" y="1258">  ├── phantomjs-polyfill@0.0.2 </tspan>
<tspan x="10" y="1274">  ├─┬ phantomjs-prebuilt@2.1.14 </tspan>
<tspan x="10" y="1290">  │ ├── es6-promise@4.0.5 </tspan>
<tspan x="10" y="1306">  │ ├─┬ extract-zip@1.5.0 </tspan>
<tspan x="10" y="1322">  │ │ ├─┬ concat-stream@1.5.0 </tspan>
<tspan x="10" y="1338">  │ │ │ ├─┬ readable-stream@2.0.6 </tspan>
<tspan x="10" y="1354">  │ │ │ │ ├── core-util-is@1.0.2 </tspan>
<tspan x="10" y="1370">  │ │ │ │ ├── isarray@1.0.0 </tspan>
<tspan x="10" y="1386">  │ │ │ │ ├── process-nextick-args@1.0.7 </tspan>
<tspan x="10" y="1402">  │ │ │ │ ├── string_decoder@0.10.31 </tspan>
<tspan x="10" y="1418">  │ │ │ │ └── util-deprecate@1.0.2 </tspan>
<tspan x="10" y="1434">  │ │ │ └── typedarray@0.0.6 </tspan>
<tspan x="10" y="1450">  │ │ ├── debug@0.7.4 </tspan>
<tspan x="10" y="1466">  │ │ ├─┬ mkdirp@0.5.0 </tspan>
<tspan x="10" y="1482">  │ │ │ └── minimist@0.0.8 </tspan>
<tspan x="10" y="1498">  │ │ └─┬ yauzl@2.4.1 </tspan>
<tspan x="10" y="1514">  │ │   └─┬ fd-slicer@1.0.1 </tspan>
<tspan x="10" y="1530">  │ │     └── pend@1.2.0 </tspan>
<tspan x="10" y="1546">  │ ├─┬ fs-extra@1.0.0 </tspan>
<tspan x="10" y="1562">  │ │ ├── graceful-fs@4.1.11 </tspan>
<tspan x="10" y="1578">  │ │ ├── jsonfile@2.4.0 </tspan>
<tspan x="10" y="1594">  │ │ └── klaw@1.3.1 </tspan>
<tspan x="10" y="1610">  │ ├─┬ hasha@2.2.0 </tspan>
<tspan x="10" y="1626">  │ │ └── is-stream@1.1.0 </tspan>
<tspan x="10" y="1642">  │ ├── kew@0.7.0 </tspan>
<tspan x="10" y="1658">  │ ├── progress@1.1.8 </tspan>
<tspan x="10" y="1674">  │ ├─┬ request@2.79.0 </tspan>
<tspan x="10" y="1690">  │ │ ├── aws-sign2@0.6.0 </tspan>
<tspan x="10" y="1706">  │ │ ├── aws4@1.6.0 </tspan>
<tspan x="10" y="1722">  │ │ ├── caseless@0.11.0 </tspan>
<tspan x="10" y="1738">  │ │ ├─┬ combined-stream@1.0.5 </tspan>
<tspan x="10" y="1754">  │ │ │ └── delayed-stream@1.0.0 </tspan>
<tspan x="10" y="1770">  │ │ ├── extend@3.0.0 </tspan>
<tspan x="10" y="1786">  │ │ ├── forever-agent@0.6.1 </tspan>
<tspan x="10" y="1802">  │ │ ├─┬ form-data@2.1.2 </tspan>
<tspan x="10" y="1818">  │ │ │ └── asynckit@0.4.0 </tspan>
<tspan x="10" y="1834">  │ │ ├─┬ har-validator@2.0.6 </tspan>
<tspan x="10" y="1850">  │ │ │ ├─┬ commander@2.9.0 </tspan>
<tspan x="10" y="1866">  │ │ │ │ └── graceful-readlink@1.0.1 </tspan>
<tspan x="10" y="1882">  │ │ │ └─┬ is-my-json-valid@2.16.0 </tspan>
<tspan x="10" y="1898">  │ │ │   ├── generate-function@2.0.0 </tspan>
<tspan x="10" y="1914">  │ │ │   ├─┬ generate-object-property@1.2.0 </tspan>
<tspan x="10" y="1930">  │ │ │   │ └── is-property@1.0.2 </tspan>
<tspan x="10" y="1946">  │ │ │   ├── jsonpointer@4.0.1 </tspan>
<tspan x="10" y="1962">  │ │ │   └── xtend@4.0.1 </tspan>
<tspan x="10" y="1978">  │ │ ├─┬ hawk@3.1.3 </tspan>
<tspan x="10" y="1994">  │ │ │ ├── boom@2.10.1 </tspan>
<tspan x="10" y="2010">  │ │ │ ├── cryptiles@2.0.5 </tspan>
<tspan x="10" y="2026">  │ │ │ ├── hoek@2.16.3 </tspan>
<tspan x="10" y="2042">  │ │ │ └── sntp@1.0.9 </tspan>
<tspan x="10" y="2058">  │ │ ├─┬ http-signature@1.1.1 </tspan>
<tspan x="10" y="2074">  │ │ │ ├── assert-plus@0.2.0 </tspan>
<tspan x="10" y="2090">  │ │ │ ├─┬ jsprim@1.4.0 </tspan>
<tspan x="10" y="2106">  │ │ │ │ ├── assert-plus@1.0.0 </tspan>
<tspan x="10" y="2122">  │ │ │ │ ├── extsprintf@1.0.2 </tspan>
<tspan x="10" y="2138">  │ │ │ │ ├── json-schema@0.2.3 </tspan>
<tspan x="10" y="2154">  │ │ │ │ └── verror@1.3.6 </tspan>
<tspan x="10" y="2170">  │ │ │ └─┬ sshpk@1.11.0 </tspan>
<tspan x="10" y="2186">  │ │ │   ├── asn1@0.2.3 </tspan>
<tspan x="10" y="2202">  │ │ │   ├── assert-plus@1.0.0 </tspan>
<tspan x="10" y="2218">  │ │ │   ├── bcrypt-pbkdf@1.0.1 </tspan>
<tspan x="10" y="2234">  │ │ │   ├─┬ dashdash@1.14.1 </tspan>
<tspan x="10" y="2250">  │ │ │   │ └── assert-plus@1.0.0 </tspan>
<tspan x="10" y="2266">  │ │ │   ├── ecc-jsbn@0.1.1 </tspan>
<tspan x="10" y="2282">  │ │ │   ├─┬ getpass@0.1.6 </tspan>
<tspan x="10" y="2298">  │ │ │   │ └── assert-plus@1.0.0 </tspan>
<tspan x="10" y="2314">  │ │ │   ├── jodid25519@1.0.2 </tspan>
<tspan x="10" y="2330">  │ │ │   ├── jsbn@0.1.1 </tspan>
<tspan x="10" y="2346">  │ │ │   └── tweetnacl@0.14.5 </tspan>
<tspan x="10" y="2362">  │ │ ├── is-typedarray@1.0.0 </tspan>
<tspan x="10" y="2378">  │ │ ├── isstream@0.1.2 </tspan>
<tspan x="10" y="2394">  │ │ ├── json-stringify-safe@5.0.1 </tspan>
<tspan x="10" y="2410">  │ │ ├─┬ mime-types@2.1.15 </tspan>
<tspan x="10" y="2426">  │ │ │ └── mime-db@1.27.0 </tspan>
<tspan x="10" y="2442">  │ │ ├── oauth-sign@0.8.2 </tspan>
<tspan x="10" y="2458">  │ │ ├── qs@6.3.2 </tspan>
<tspan x="10" y="2474">  │ │ ├── stringstream@0.0.5 </tspan>
<tspan x="10" y="2490">  │ │ ├─┬ tough-cookie@2.3.2 </tspan>
<tspan x="10" y="2506">  │ │ │ └── punycode@1.4.1 </tspan>
<tspan x="10" y="2522">  │ │ ├── tunnel-agent@0.4.3 </tspan>
<tspan x="10" y="2538">  │ │ └── uuid@3.0.1 </tspan>
<tspan x="10" y="2554">  │ ├─┬ request-progress@2.0.1 </tspan>
<tspan x="10" y="2570">  │ │ └── throttleit@1.0.0 </tspan>
<tspan x="10" y="2586">  │ └─┬ which@1.2.14 </tspan>
<tspan x="10" y="2602">  │   └── isexe@2.0.0 </tspan>
<tspan x="10" y="2618">  ├─┬ protocolify@2.0.0 </tspan>
<tspan x="10" y="2634">  │ ├── file-url@2.0.2 </tspan>
<tspan x="10" y="2650">  │ └── prepend-http@1.0.4 </tspan>
<tspan x="10" y="2666">  └─┬ update-notifier@2.1.0 </tspan>
<tspan x="10" y="2682">    ├─┬ boxen@1.0.0 </tspan>
<tspan x="10" y="2698">    │ ├─┬ ansi-align@1.1.0 </tspan>
<tspan x="10" y="2714">    │ │ └─┬ string-width@1.0.2 </tspan>
<tspan x="10" y="2730">    │ │   ├── code-point-at@1.1.0 </tspan>
<tspan x="10" y="2746">    │ │   └── is-fullwidth-code-point@1.0.0 </tspan>
<tspan x="10" y="2762">    │ ├── camelcase@4.1.0 </tspan>
<tspan x="10" y="2778">    │ ├── cli-boxes@1.0.0 </tspan>
<tspan x="10" y="2794">    │ ├─┬ string-width@2.0.0 </tspan>
<tspan x="10" y="2810">    │ │ └── is-fullwidth-code-point@2.0.0 </tspan>
<tspan x="10" y="2826">    │ ├─┬ term-size@0.1.1 </tspan>
<tspan x="10" y="2842">    │ │ └─┬ execa@0.4.0 </tspan>
<tspan x="10" y="2858">    │ │   ├─┬ cross-spawn-async@2.2.5 </tspan>
<tspan x="10" y="2874">    │ │   │ └─┬ lru-cache@4.0.2 </tspan>
<tspan x="10" y="2890">    │ │   │   ├── pseudomap@1.0.2 </tspan>
<tspan x="10" y="2906">    │ │   │   └── yallist@2.1.2 </tspan>
<tspan x="10" y="2922">    │ │   ├── npm-run-path@1.0.0 </tspan>
<tspan x="10" y="2938">    │ │   ├── path-key@1.0.0 </tspan>
<tspan x="10" y="2954">    │ │   └── strip-eof@1.0.0 </tspan>
<tspan x="10" y="2970">    │ └─┬ widest-line@1.0.0 </tspan>
<tspan x="10" y="2986">    │   └── string-width@1.0.2 </tspan>
<tspan x="10" y="3002">    ├─┬ configstore@3.0.0 </tspan>
<tspan x="10" y="3018">    │ ├─┬ dot-prop@4.1.1 </tspan>
<tspan x="10" y="3034">    │ │ └── is-obj@1.0.1 </tspan>
<tspan x="10" y="3050">    │ ├─┬ unique-string@1.0.0 </tspan>
<tspan x="10" y="3066">    │ │ └── crypto-random-string@1.0.0 </tspan>
<tspan x="10" y="3082">    │ └─┬ write-file-atomic@1.3.1 </tspan>
<tspan x="10" y="3098">    │   ├── imurmurhash@0.1.4 </tspan>
<tspan x="10" y="3114">    │   └── slide@1.1.6 </tspan>
<tspan x="10" y="3130">    ├── is-npm@1.0.0 </tspan>
<tspan x="10" y="3146">    ├─┬ latest-version@3.1.0 </tspan>
<tspan x="10" y="3162">    │ └─┬ package-json@4.0.0 </tspan>
<tspan x="10" y="3178">    │   ├─┬ got@6.7.1 </tspan>
<tspan x="10" y="3194">    │   │ ├─┬ create-error-class@3.0.2 </tspan>
<tspan x="10" y="3210">    │   │ │ └── capture-stack-trace@1.0.0 </tspan>
<tspan x="10" y="3226">    │   │ ├── duplexer3@0.1.4 </tspan>
<tspan x="10" y="3242">    │   │ ├── get-stream@3.0.0 </tspan>
<tspan x="10" y="3258">    │   │ ├── is-redirect@1.0.0 </tspan>
<tspan x="10" y="3274">    │   │ ├── is-retry-allowed@1.1.0 </tspan>
<tspan x="10" y="3290">    │   │ ├── lowercase-keys@1.0.0 </tspan>
<tspan x="10" y="3306">    │   │ ├── safe-buffer@5.0.1 </tspan>
<tspan x="10" y="3322">    │   │ ├── timed-out@4.0.1 </tspan>
<tspan x="10" y="3338">    │   │ ├── unzip-response@2.0.1 </tspan>
<tspan x="10" y="3354">    │   │ └── url-parse-lax@1.0.0 </tspan>
<tspan x="10" y="3370">    │   ├─┬ registry-auth-token@3.1.0 </tspan>
<tspan x="10" y="3386">    │   │ └─┬ rc@1.2.1 </tspan>
<tspan x="10" y="3402">    │   │   ├── deep-extend@0.4.1 </tspan>
<tspan x="10" y="3418">    │   │   ├── ini@1.3.4 </tspan>
<tspan x="10" y="3434">    │   │   └── strip-json-comments@2.0.1 </tspan>
<tspan x="10" y="3450">    │   └── registry-url@3.1.0 </tspan>
<tspan x="10" y="3466">    ├── lazy-req@2.0.0 </tspan>
<tspan x="10" y="3482">    ├── semver-diff@2.1.0 </tspan>
<tspan x="10" y="3498">    └── xdg-basedir@3.0.0</tspan>
</text>
</svg>
